<svg xmlns="http://www.w3.org/2000/svg" data-name="14 Portfolio" viewBox="0 0 512 640" x="0px" y="0px"><path d="m488,272h-72v-8c0-13.23-10.77-24-24-24h-32c-13.23,0-24,10.77-24,24v8h-16V104h-.02c0-2.08-.79-4.13-2.32-5.66l-64-64c-1.53-1.53-3.58-2.32-5.66-2.32v-.02H8c-4.42,0-8,3.58-8,8v432c0,4.42,3.58,8,8,8h480c13.23,0,24-10.77,24-24v-160c0-13.23-10.77-24-24-24Zm-136-8c0-4.41,3.59-8,8-8h32c4.41,0,8,3.59,8,8v8h-48v-8Zm-96-204.69l36.69,36.69h-36.69v-36.69Zm-14.62,404.69H16V48h224v56c0,4.42,3.58,8,8,8h56v160h-40c-13.23,0-24,10.77-24,24v160c0,2.8.49,5.5,1.38,8Zm254.62-8c0,4.41-3.59,8-8,8h-224c-4.41,0-8-3.59-8-8v-96.17c3.83,2.89,8.22,5.12,13.01,6.49l82.99,23.71v17.97c0,4.42,3.58,8,8,8h32c4.42,0,8-3.58,8-8v-17.97l82.99-23.71c4.79-1.37,9.18-3.6,13.01-6.49v96.17Zm-128-56v-16.18h0v-15.82h16v15.81h0v16.19h-16Zm128-72.14c0,10.66-7.16,20.15-17.41,23.08l-78.59,22.46v-13.39c0-4.42-3.58-8-8-8h-32c-4.42,0-8,3.58-8,8v13.39l-78.59-22.46c-10.25-2.93-17.41-12.42-17.41-23.08v-31.86c0-4.41,3.59-8,8-8h224c4.41,0,8,3.59,8,8v31.86Z"/><path d="m472,432h-16c-4.42,0-8,3.58-8,8s3.58,8,8,8h16c4.42,0,8-3.58,8-8s-3.58-8-8-8Z"/><path d="m160,88c-48.52,0-88,39.48-88,88s39.48,88,88,88,88-39.48,88-88-39.48-88-88-88Zm0,160c-16.39,0-31.51-5.52-43.63-14.77,11.79-11.02,27.3-17.23,43.63-17.23s31.84,6.21,43.63,17.23c-12.12,9.26-27.24,14.77-43.63,14.77Zm-24-72c0-13.23,10.77-24,24-24s24,10.77,24,24-10.77,24-24,24-24-10.77-24-24Zm79.22,46.14c-7.99-7.64-17.39-13.48-27.61-17.24,7.63-7.29,12.4-17.55,12.4-28.91,0-22.06-17.94-40-40-40s-40,17.94-40,40c0,11.36,4.77,21.62,12.4,28.91-10.22,3.76-19.62,9.6-27.61,17.24-10.47-12.51-16.78-28.6-16.78-46.14,0-39.7,32.3-72,72-72s72,32.3,72,72c0,17.55-6.32,33.64-16.78,46.14Z"/><path d="m56,312h104c4.42,0,8-3.58,8-8s-3.58-8-8-8H56c-4.42,0-8,3.58-8,8s3.58,8,8,8Z"/><path d="m216,344H56c-4.42,0-8,3.58-8,8s3.58,8,8,8h160c4.42,0,8-3.58,8-8s-3.58-8-8-8Z"/><path d="m216,376H56c-4.42,0-8,3.58-8,8s3.58,8,8,8h160c4.42,0,8-3.58,8-8s-3.58-8-8-8Z"/><path d="m216,408H56c-4.42,0-8,3.58-8,8s3.58,8,8,8h160c4.42,0,8-3.58,8-8s-3.58-8-8-8Z"/><text x="0" y="527" fill="#000000" font-size="5px" font-weight="bold" font-family="'Helvetica Neue', Helvetica, Arial-Unicode, Arial, Sans-serif">Created by Edy Subiyanto</text><text x="0" y="532" fill="#000000" font-size="5px" font-weight="bold" font-family="'Helvetica Neue', Helvetica, Arial-Unicode, Arial, Sans-serif">from the Noun Project</text></svg>